#!OML:ASF F:\VICON\USERDATA\INSTALL\rory3\rory3.ASF
:FULLY-SPECIFIED
:DEGREES
1
root 1.82697 17.3022 -33.3735 -1.60688 11.6732 3.09909
lowerback 20.1659 -0.953735 -6.05276
upperback 2.32486 -2.49963 0.671109
thorax -8.45996 -0.973909 4.85646
lowerneck -7.79585 5.89777 0.767304
upperneck 32.0937 9.88141 -4.29391
head 12.106 4.04687 -0.500853
rclavicle -2.79292e-014 -1.90833e-014
rhumerus -39.0806 -20.4676 -63.1686
rradius 37.1794
rwrist -1.60725
rhand -8.38593 5.0932
rfingers 7.12502
rthumb 17.5375 -24.1358
lclavicle -2.79292e-014 -1.90833e-014
lhumerus -18.0856 2.14316 74.7012
lradius 37.7372
lwrist -28.0201
lhand -5.72419 56.003
lfingers 7.12502
lthumb 20.0975 84.9836
rfemur -31.0737 -1.15121 10.1264
rtibia 27.2406
rfoot -13.7442 -21.5577
rtoes 13.7557
lfemur 7.84828 -5.45757 -27.4268
ltibia 16.7169
lfoot -20.1836 -0.928209
ltoes -10.5373
2
root 1.81657 17.297 -33.2814 -1.41238 11.3382 3.24236
lowerback 20.2906 -0.888673 -6.30074
upperback 2.17238 -2.48853 0.622722
thorax -8.68952 -0.947574 4.95246
lowerneck -7.35266 5.85991 1.11427
upperneck 31.7332 9.83822 -4.68592
head 11.911 4.04208 -0.728834
rclavicle 1.36913e-014 -1.59028e-015
rhumerus -39.3108 -20.2081 -63.3399
rradius 37.6777
rwrist -1.43723
rhand -8.13128 5.184
rfingers 7.12502
rthumb 17.7825 -24.0229
lclavicle 1.36913e-014 -1.59028e-015
lhumerus -18.5033 2.92482 75.2389
lradius 36.9616
lwrist -26.7032
lhand -5.04203 54.6338
lfingers 7.12502
lthumb 20.753 83.5441
rfemur -31.4046 -0.711332 10.0838
rtibia 26.7229
rfoot -13.9644 -21.7132
rtoes 13.9208
lfemur 8.15758 -5.22841 -27.5093
ltibia 16.3745
lfoot -20.0234 -0.951498
ltoes -10.7098
3
root 1.80881 17.2852 -33.1872 -1.34467 11.0501 3.25845
lowerback 20.9137 -1.01232 -6.30377
upperback 2.05452 -2.69762 0.629553
thorax -9.13256 -1.02362 5.05049
lowerneck -8.55637 6.13189 0.598758
upperneck 32.8031 10.2539 -4.06493
head 12.5473 4.17383 -0.303219
rclavicle -2.85256e-014 -2.40529e-014
rhumerus -38.9732 -19.6472 -63.7445
rradius 37.9714
rwrist -1.33876
rhand -7.98195 5.15889
rfingers 7.12502
rthumb 17.9262 -24.035
lclavicle -2.85256e-014 -2.40529e-014
lhumerus -18.8725 4.62222 75.5952
lradius 36.2058
lwrist -25.2663
lhand -3.70768 58.168
lfingers 7.12502
lthumb 22.0346 86.9327
rfemur -31.7262 -0.433834 10.1925
rtibia 26.4996
rfoot -14.0534 -21.835
rtoes 14.0887
lfemur 8.67587 -5.13881 -27.5227
ltibia 15.8984
lfoot -19.739 -0.729129
ltoes -10.9604
4
root 1.8052 17.272 -33.0904 -1.08199 10.9377 3.50627
lowerback 20.8058 -0.905381 -6.4398
upperback 1.68711 -2.62076 0.4048
thorax -9.49932 -0.961997 4.8652
lowerneck -6.74897 5.97609 1.61491
upperneck 32.257 9.89108 -4.51178
head 12.0185 4.14296 -0.762209
rclavicle 2.20403e-014 1.59028e-014
rhumerus -40.0982 -19.4974 -63.7196
rradius 38.6942
rwrist -1.63239
rhand -8.04785 5.2751
rfingers 7.12502
rthumb 17.8628 -23.9245
lclavicle 2.20403e-014 1.59028e-014
lhumerus -19.5788 5.05997 75.9022
lradius 35.3596
lwrist -23.2137
lhand -3.54524 59.0533
lfingers 7.12502
lthumb 22.1906 87.7995
rfemur -32.0988 -0.643067 10.0992
rtibia 26.2158
rfoot -14.0539 -21.6712
rtoes 14.5302
lfemur 8.97158 -5.09205 -27.7578
ltibia 15.5364
lfoot -19.5796 -0.683369
ltoes -10.6606
5
root 1.79946 17.2574 -32.9879 -0.836409 10.743 3.61415
lowerback 20.701 -1.11222 -6.66784
upperback 2.11818 -2.90069 0.567065
thorax -8.90469 -1.1203 5.23115
lowerneck -8.08886 6.34525 1.18198
upperneck 32.0358 10.5647 -4.72625
head 12.2245 4.33353 -0.631286
rclavicle -2.24875e-014 4.17448e-015
rhumerus -38.6937 -18.9698 -64.4467
rradius 39.1861
rwrist -1.78942
rhand -8.28397 5.27949
rfingers 7.12502
rthumb 17.6356 -23.9407
lclavicle -2.24875e-014 4.17448e-015
lhumerus -18.9623 7.61335 76.3212
lradius 34.544
lwrist -21.1392
lhand -4.05087 58.2441
lfingers 7.12502
lthumb 21.7051 87.0473
rfemur -32.4948 -0.571587 10.1139
rtibia 26.0205
rfoot -13.913 -21.6757
rtoes 14.2491
lfemur 9.25134 -4.92864 -27.799
ltibia 15.2106
lfoot -19.5405 -0.772462
ltoes -9.67341
6
root 1.78925 17.2426 -32.8872 -0.629083 10.3873 3.65716
lowerback 20.4761 -1.02094 -6.87748
upperback 2.11539 -2.80967 0.598176
thorax -8.78559 -1.07492 5.34995
lowerneck -7.99391 6.26491 1.2171
upperneck 32.1211 10.4247 -4.67111
head 12.232 4.2807 -0.638805
rclavicle -2.21396e-014 3.37934e-015
rhumerus -38.8762 -18.6839 -64.5834
rradius 39.9535
rwrist -2.18419
rhand -8.31885 5.03227
rfingers 7.12502
rthumb 17.602 -24.1909
lclavicle -2.21396e-014 3.37934e-015
lhumerus -19.3662 8.7375 76.7136
lradius 34.1793
lwrist -18.4033
lhand -4.5617 57.9921
lfingers 7.12502
lthumb 21.2145 86.8512
rfemur -33.0144 -0.350612 10.2398
rtibia 25.9823
rfoot -13.5355 -21.7261
rtoes 13.5517
lfemur 9.67469 -4.68827 -27.779
ltibia 14.61
lfoot -19.3411 -0.69668
ltoes -8.8806
7
root 1.78489 17.23 -32.7896 -0.326287 10.1715 3.81352
lowerback 20.4515 -0.981654 -6.91538
upperback 2.01025 -2.77897 0.504812
thorax -8.89666 -1.05282 5.26271
lowerneck -8.22188 6.15689 1.07103
upperneck 32.484 10.2211 -4.32858
head 12.3883 4.19611 -0.502531
rclavicle 2.7159e-014 -1.70955e-014
rhumerus -39.1932 -18.6994 -64.65
rradius 40.6492
rwrist -2.49334
rhand -8.23708 5.08101
rfingers 7.12502
rthumb 17.6807 -24.1351
lclavicle 2.7159e-014 -1.70955e-014
lhumerus -19.878 9.70469 76.9941
lradius 34.0146
lwrist -15.2374
lhand -5.25206 58.567
lfingers 7.12502
lthumb 20.5512 87.4992
rfemur -33.5298 -0.471257 10.2858
rtibia 25.9476
rfoot -13.0992 -21.5042
rtoes 13.2626
lfemur 10.043 -4.86188 -27.9894
ltibia 14.0303
lfoot -19.0879 -0.383518
ltoes -9.43951
